<?xml version="1.0" encoding="UTF-8" standalone="no"?>
<!-- Created with Inkscape (http://www.inkscape.org/) -->

<svg
   version="1.1"
   id="svg2"
   width="545.13031"
   height="337.95291"
   viewBox="0 0 545.13031 337.95291"
   sodipodi:docname="Screenshot 2023-05-19 231127.png"
   inkscape:version="1.2.2 (732a01da63, 2022-12-09)"
   xmlns:inkscape="http://www.inkscape.org/namespaces/inkscape"
   xmlns:sodipodi="http://sodipodi.sourceforge.net/DTD/sodipodi-0.dtd"
   xmlns="http://www.w3.org/2000/svg"
   xmlns:svg="http://www.w3.org/2000/svg">
  <defs
     id="defs6" />
  <sodipodi:namedview
     id="namedview4"
     pagecolor="#ffffff"
     bordercolor="#000000"
     borderopacity="0.25"
     inkscape:showpageshadow="2"
     inkscape:pageopacity="0.0"
     inkscape:pagecheckerboard="0"
     inkscape:deskcolor="#d1d1d1"
     showgrid="false"
     inkscape:zoom="0.87936047"
     inkscape:cx="105.75868"
     inkscape:cy="201.28264"
     inkscape:window-width="2560"
     inkscape:window-height="1369"
     inkscape:window-x="-8"
     inkscape:window-y="-8"
     inkscape:window-maximized="1"
     inkscape:current-layer="g8" />
  <g
     inkscape:groupmode="layer"
     inkscape:label="Image"
     id="g8"
     transform="translate(-57.340779,-44.231863)">
    <path
       style="fill:#ffffff"
       d="m 333.84729,372.76818 c 0.15897,-13.16335 -5.07353,-24.61959 -8.87205,-19.4248 -0.70368,0.96234 -1.89249,1.62036 -2.64179,1.46226 -0.77582,-0.1637 -1.30257,0.46598 -1.22348,1.46254 0.17555,2.21188 -1.96524,2.26662 -3.76645,0.0963 -0.75484,-0.90954 -1.25994,-1.80954 -1.12244,-2 0.79782,-1.10515 -0.0408,-2.20249 -2.0731,-2.71256 -1.27771,-0.32068 -3.99769,-1.71946 -6.04441,-3.1084 -4.59551,-3.1186 -4.26264,-3.16694 -4.98958,0.72465 -1.23934,6.63474 -6.10649,21.75 -7.00355,21.75 -0.88123,0 -0.71216,-3.27775 0.96718,-18.75 0.79066,-7.28456 0.011,-7.71331 -4.04837,-2.22636 -1.618,2.187 -3.7555,3.97636 -4.75,3.97636 -1.85267,0 -2.1016,-0.65171 -1.90985,-5 0.14045,-3.18495 -4.30147,-6.74023 -6.324,-5.06168 -1.31539,1.09168 -3.08032,-1.89234 -2.60849,-4.41026 0.10017,-0.53456 -0.68608,-0.18621 -1.74723,0.77411 -1.06115,0.96033 -2.56171,1.5034 -3.33457,1.20682 -0.77286,-0.29657 -2.89071,0.81758 -4.70634,2.47589 -1.81562,1.65832 -3.89912,3.01512 -4.63,3.01512 -1.61046,0 -2.60457,-6.75834 -1.09505,-7.44453 0.57605,-0.26186 -0.12915,-0.23548 -1.5671,0.0586 -1.81402,0.371 -2.79944,0.0527 -3.21862,-1.03969 -0.33228,-0.86589 -1.06827,-1.57437 -1.63554,-1.57437 -0.56726,0 -1.93802,-0.90664 -3.04614,-2.01476 -1.98683,-1.98683 -7.55986,-2.48253 -8.62028,-0.76674 -0.95009,1.53728 -2.88431,0.72417 -3.99968,-1.68139 -0.78823,-1.7 -0.81051,-2.55537 -0.073,-2.80122 2.06095,-0.68697 -0.44889,-2.73589 -3.3513,-2.73589 -2.27431,0 -2.94098,-0.45336 -2.94098,-2 0,-2.22633 -1.39018,-2.39296 -9.214,-1.10439 -2.965,0.48833 -5.09838,0.39201 -5.75,-0.25961 -1.42414,-1.42414 -1.2987,-2.636 0.27287,-2.636 0.71988,0 2.18238,-0.64651 3.25,-1.43668 1.78527,-1.32132 1.62227,-1.40796 -2.02999,-1.07897 -4.21854,0.38 -10.52888,-1.67772 -10.52888,-3.43332 0,-0.57807 -0.9,-1.05103 -2,-1.05103 -1.83037,0 -2.66373,-2.15188 -2.07899,-5.36831 0.0868,-0.47756 -1.089,-0.55536 -2.61293,-0.17288 -3.29924,0.82806 -3.15269,0.81309 -6.30808,0.6443 -2.05116,-0.10973 -2.2307,-0.32419 -1,-1.19455 1.12881,-0.79831 1.19068,-1.18633 0.25,-1.56802 -0.6875,-0.27897 -1.23569,-1.48221 -1.2182,-2.67387 0.0306,-2.08614 0.0846,-2.09696 1.45196,-0.29124 0.81974,1.08253 2.07463,1.62427 2.9682,1.28138 2.39308,-0.91831 1.83565,-2.36822 -1.20196,-3.12631 -1.5125,-0.37748 -3.56267,-1.41879 -4.55594,-2.31402 -1.4533,-1.30987 -2.1765,-1.39629 -3.70364,-0.44257 -1.20012,0.74948 -2.12023,0.82507 -2.50308,0.20561 -0.33295,-0.53874 -0.12882,-0.97952 0.45364,-0.97952 0.58246,0 1.05902,-0.66643 1.05902,-1.48095 0,-1.90819 -4.05349,-2.90934 -9.0604,-2.23777 -2.16678,0.29062 -3.9396,0.36941 -3.9396,0.17509 0,-0.92876 4.86642,-5.45637 5.86467,-5.45637 0.62443,0 1.13533,-0.585 1.13533,-1.3 0,-2.30597 -2.30903,-3.7 -6.12857,-3.7 -2.05072,0 -4.40228,-0.67371 -5.2257,-1.49713 -0.82342,-0.82342 -2.23727,-1.21311 -3.14189,-0.86597 -1.40224,0.53809 -1.54752,0.11287 -0.98533,-2.88386 0.76934,-4.10094 -0.72381,-5.54722 -8.68111,-8.40862 -4.97618,-1.78942 -6.32289,-3.34442 -2.89642,-3.34442 1.06754,0 2.2191,-0.45 2.55902,-1 0.33992,-0.55 2.33638,-1 4.43657,-1 8.92219,0 7.42896,-4.86039 -2.12682,-6.92268 -3.47036,-0.74895 -8.08177,-2.19774 -10.24758,-3.21953 -2.16581,-1.02178 -4.7165,-1.85779 -5.66821,-1.85779 -2.85524,0 -4.89396,-1.12263 -4.89396,-2.69489 0,-1.16719 0.82562,-1.34142 3.89737,-0.82245 2.31586,0.39126 4.15492,0.24176 4.53203,-0.36843 0.34906,-0.56478 1.29524,-0.77339 2.10263,-0.46357 1.00439,0.38542 1.46797,-0.10206 1.46797,-1.54367 0,-2.36544 -1.01331,-2.69368 -2.8,-0.90699 -0.93333,0.93333 -1.46667,0.93333 -2.4,0 -0.8956,-0.8956 -0.9119,-1.4881 -0.0643,-2.33571 0.84762,-0.84762 0.82809,-1.41838 -0.077,-2.25 -2.29544,-2.10919 -7.57921,-5.61429 -8.46322,-5.61429 -0.48703,0 -1.6896,-0.88851 -2.67238,-1.97447 -0.98278,-1.08596 -2.74002,-2.2735 -3.90498,-2.63898 -1.16497,-0.36548 -3.10727,-1.61447 -4.31623,-2.77553 -1.20896,-1.16106 -4.47146,-4.13273 -7.25,-6.6037 -7.47617,-6.6486 -6.59678,-9.02167 1.83376,-4.94848 5.75699,2.78148 7.31865,1.96151 2.81153,-1.47624 -3.26691,-2.49179 -7.69718,-8.23005 -7.69718,-9.96969 0,-0.35806 1.125,-0.36866 2.5,-0.0236 2.77672,0.69691 3.57168,-1.24089 0.92561,-2.25628 -1.10247,-0.42306 -1.39025,-1.33783 -0.96007,-3.05179 0.4799,-1.91208 0.16796,-2.56437 -1.42561,-2.9811 -1.12196,-0.29335 -2.03993,-0.95748 -2.03993,-1.47579 0,-0.51831 0.45,-0.66427 1,-0.32435 0.55,0.33992 1.49804,0.31023 2.10676,-0.066 0.77153,-0.47683 0.69581,-0.94441 -0.25,-1.54371 -0.80028,-0.50708 -0.89429,-0.86596 -0.2292,-0.875 0.62015,-0.008 1.71238,0.68936 2.42716,1.55063 1.75496,2.11459 6.39,4.43406 8.86067,4.43406 1.10809,0 4.07347,0.69897 6.58973,1.55326 4.11318,1.39646 4.88471,1.39875 7.64309,0.0227 2.33504,-1.16487 3.55458,-1.2702 5.10427,-0.44083 1.4534,0.77784 3.06817,0.78493 5.64185,0.0248 3.59179,-1.06083 8.47877,-2.12631 10.85567,-2.36678 1.91311,-0.19355 1.5529,-0.87368 -2.36185,-4.45945 -4.07849,-3.73575 -4.10269,-6.80211 -0.0456,-5.78385 1.65004,0.41413 2.57284,0.11314 2.99057,-0.97544 0.33224,-0.86591 1.74323,-1.57439 3.1355,-1.57439 1.58345,0 2.53138,-0.56171 2.53138,-1.5 0,-1.13752 1.23411,-1.5 5.10699,-1.5 4.28554,0 5.00753,-0.25918 4.48866,-1.61134 -0.42892,-1.11773 -0.1851,-1.4451 0.79591,-1.06865 0.77783,0.29849 3.59544,-0.14643 6.26134,-0.98871 2.66591,-0.84227 5.5221,-1.5309 6.3471,-1.53027 0.825,6.2e-4 3.87938,-0.85435 6.78751,-1.89995 2.90813,-1.04559 6.81634,-1.90108 8.6849,-1.90108 1.86857,0 4.50805,-0.42227 5.86551,-0.93838 1.98458,-0.75453 15.314,-1.36948 22.66208,-1.0455 0.825,0.0364 5.775,-0.22503 11,-0.5809 14.68967,-1.00049 27.70246,-0.48386 38.8843,1.5438 3.48624,0.63218 6.99589,0.8972 7.7992,0.58894 0.80332,-0.30826 3.34066,-0.13002 5.63854,0.3961 2.29788,0.52611 8.90296,1.18204 14.67796,1.45762 12.58532,0.60056 14.31227,0.82114 15.12283,1.93157 0.34255,0.46928 1.6313,0.31352 2.86389,-0.34614 2.25067,-1.20453 9.01328,1.21164 9.01328,3.22029 0,1.40714 2.25737,0.80107 3.64049,-0.9774 1.2539,-1.61231 1.43893,-1.6205 2.35165,-0.10415 0.83813,1.39242 1.62431,1.48502 5.10568,0.60135 3.99508,-1.01406 4.21242,-0.93816 7.45761,2.60415 3.80886,4.15759 4.01111,4.22497 6.17793,2.05815 1.01311,-1.01311 2.77851,-1.45181 4.86303,-1.20845 2.66999,0.3117 3.47136,-0.0543 4.35242,-1.98805 1.52777,-3.35309 3.45503,-2.24176 4.10167,2.36517 0.55049,3.92183 0.55049,3.92183 3.13836,-1.70015 3.65579,-7.94196 5.29924,-8.64687 4.50394,-1.93183 -0.55321,4.67099 -0.40307,5.31681 1.34216,5.7732 1.08079,0.28263 1.96506,1.36579 1.96506,2.40703 0,1.04123 0.86048,2.62992 1.91219,3.53042 3.50846,3.00404 1.31323,4.43586 -2.66346,1.73721 -2.45715,-1.66747 -3.92504,-2.11774 -4.62429,-1.41849 -0.56344,0.56344 -2.00434,1.02444 -3.202,1.02444 -2.37323,0 -3.8253,1.39307 -4.69057,4.5 -0.30635,1.1 -1.47416,4.51313 -2.59513,7.58474 -6.09655,16.70531 -6.72716,23.23296 -1.7651,18.27089 2.14854,-2.14854 2.87893,-2.39257 4.10802,-1.37251 0.82218,0.68235 2.13836,0.9937 2.92485,0.6919 0.78648,-0.30181 1.69245,0.13527 2.01326,0.97128 1.61003,4.19568 5.15976,-2.84907 6.6242,-13.1463 2.05565,-14.45427 3.66735,-14.99067 3.35678,-1.1172 -0.15809,7.06156 -0.53747,13.08926 -0.84309,13.39487 -0.30561,0.30562 -0.55566,1.38066 -0.55566,2.389 0,2.28003 4.50708,2.56023 5.36163,0.33333 0.80805,-2.10575 1.99503,-1.86598 3.15124,0.63657 1.26371,2.73521 2.69212,2.7168 4.10634,-0.0529 1.1072,-2.16844 1.12497,-2.16992 1.65638,-0.13781 0.67625,2.58598 3.39117,2.67945 4.19575,0.14446 0.78275,-2.46623 3.16511,-4.43303 4.42586,-3.65384 0.60408,0.37334 0.26075,2.22591 -0.88805,4.79183 -2.34949,5.24775 -1.49764,6.98616 1.35038,2.75578 1.17726,-1.74867 3.77185,-5.12299 5.76577,-7.49848 5.62749,-6.70443 12.64322,-27.69624 9.3747,-28.05008 -0.55,-0.0595 -1.675,-0.37124 -2.5,-0.69266 -0.825,-0.32142 -2.175,-0.80953 -3,-1.08468 -1.08915,-0.36326 -0.9824,-0.52191 0.38976,-0.57923 1.03936,-0.0434 2.47085,-0.86645 3.18108,-1.82895 1.20194,-1.62887 1.35091,-1.59054 2.15225,0.55389 0.80161,2.14517 1.04415,1.94831 3.52026,-2.85718 2.65933,-5.16108 2.65933,-5.16108 3.34515,0.009 0.43172,3.2544 1.03678,4.81907 1.63299,4.22286 1.20712,-1.20712 4.77851,-0.31206 4.77851,1.19757 0,1.97479 -4.12557,4.03878 -5.0578,2.53039 -1.0466,-1.69343 -3.51198,0.26717 -4.24277,3.37407 -0.28713,1.2207 -1.8799,6.92681 -3.53948,12.68025 -3.14831,10.9144 -3.18415,13.276 -0.15995,10.53914 2.29656,-2.07835 2.83932,-1.09924 2.49455,4.5 -0.39495,6.41417 0.39204,6.87296 4.15662,2.42318 3.31908,-3.92318 3.31908,-3.92318 3.33395,-0.67318 0.019,4.15763 2.27815,4.30577 4.64183,0.30438 1.8604,-3.14941 4.05889,-3.20441 2.37575,-0.0594 -2.87741,5.37649 -0.36382,5.09846 3.68363,-0.40745 2.64034,-3.59177 3.62563,-4.25052 5.75,-3.84442 1.77775,0.33984 2.56367,0.0549 2.56367,-0.9295 0,-0.78077 1.29989,-3.19573 2.88864,-5.36658 3.75211,-5.12687 7.11136,-11.16871 7.11136,-12.79029 0,-1.97171 4.89018,-11.65674 5.88573,-11.65674 1.01317,0 2.08065,3.44615 2.10062,6.78138 0.008,1.25477 0.68865,2.54041 1.51365,2.85699 0.825,0.31659 1.5,1.04721 1.5,1.62361 0,0.5764 -0.91303,0.22172 -2.02894,-0.78817 -2.73731,-2.47723 -7.566,4.13834 -12.42739,17.02619 -1.24478,3.3 -2.59948,6.7875 -3.01044,7.75 -1.04503,2.44752 0.54443,2.18652 4.96876,-0.81591 3.78109,-2.56592 3.78109,-2.56592 3.21203,0.9408 -0.69326,4.27203 0.85225,4.00163 3.79936,-0.66473 2.386,-3.77791 5.6302,-4.97521 4.7916,-1.76839 -0.3794,1.45083 -0.0612,2.05823 1.07839,2.05823 2.21856,0 2.04051,1.411 -0.98507,7.80657 -2.76838,5.85186 -6.33287,15.87766 -6.37371,17.92725 -0.0271,1.358 3.58724,0.0786 12.27583,-4.34532 4.52707,-2.30504 6.69958,-2.42451 6.69958,-0.36844 0,1.47191 -3.6889,4.47006 -8.38665,6.81623 -4.98303,2.48865 -7.21986,4.67083 -5.73101,5.59099 0.53871,0.33294 1.25846,0.15392 1.59946,-0.39783 1.51004,-2.44331 11.53864,-4.32093 13.51681,-2.53071 1.1733,1.06182 2.62155,1.4392 3.92973,1.02401 2.94497,-0.9347 2.57692,0.33465 -0.42834,1.47725 -3.49598,1.32917 -3.11965,3.73613 0.75,4.79692 4.41429,1.2101 21.09936,0.65501 21.55675,-0.71717 0.19795,-0.59386 1.33492,-1.08976 2.52658,-1.10199 1.19167,-0.0122 3.29167,-0.90222 4.66667,-1.97776 1.375,-1.07554 2.95,-1.98051 3.5,-2.01103 1.5125,-0.084 5.01002,-3.2611 5.76724,-5.23897 0.3685,-0.9625 1.3018,-1.75 2.07402,-1.75 0.77221,0 3.26133,-2.01495 5.53138,-4.47766 4.06929,-4.41466 5.23562,-4.04882 2.96684,0.93061 -0.63828,1.40088 -1.74981,2.54705 -2.47006,2.54705 -0.72025,0 -2.33552,1.39189 -3.58948,3.09309 -2.1901,2.97121 -9.99224,8.90691 -11.70763,8.90691 -0.45508,0 -1.36361,0.64607 -2.01896,1.43572 -0.65535,0.78965 -2.62295,1.74161 -4.37245,2.11547 -1.74949,0.37387 -3.69576,1.09335 -4.32502,1.59886 -0.62927,0.5055 -3.41865,1.18848 -6.19861,1.51773 -4.4303,0.5247 -5.1779,0.95266 -6.05386,3.46542 -0.54965,1.57674 -1.22661,2.8668 -1.50434,2.8668 -1.71323,0 -5.59907,-2.54046 -5.59907,-3.66052 0,-0.73671 -0.45,-1.33948 -1,-1.33948 -0.55,0 -1,0.62686 -1,1.39301 0,0.76616 -0.675,1.65203 -1.5,1.96862 -2.52098,0.96739 -1.69013,2.34513 2.4015,3.98228 7.86759,3.14799 18.19345,2.8579 28.5985,-0.80342 2,-0.70376 2,-0.70376 0,0.9213 -1.1,0.89379 -3.125,1.85277 -4.5,2.13107 -1.375,0.2783 -4.0792,0.97004 -6.00932,1.5372 -5.2668,1.54762 -25.06209,-1.49494 -34.29631,-5.27139 -5.94148,-2.42984 -3.01684,9.44362 4.88314,19.82461 1.33237,1.7508 2.42249,3.63665 2.42249,4.19078 0,0.55412 1.79428,4.52165 3.9873,8.81672 2.19301,4.29507 3.99301,8.35786 4,9.02843 0.007,0.67056 1.02482,3.14556 2.26185,5.5 10.0416,19.11213 -0.28844,40.69794 -13.44443,28.0937 -3.38663,-3.2446 -0.57896,-10.31291 4.09649,-10.31291 0.61251,0 1.09879,-1.74411 1.09879,-3.94098 0,-2.16754 0.48646,-4.24164 1.08103,-4.6091 0.60049,-0.37112 0.80538,-1.76638 0.46092,-3.13881 -0.53771,-2.14238 -0.34915,-2.38469 1.41897,-1.82351 2.66626,0.84624 2.57214,0.19062 -0.43911,-3.05857 -1.90967,-2.06057 -2.3779,-3.45734 -2.04102,-6.08858 0.28869,-2.25481 -0.22527,-4.50583 -1.51321,-6.62751 -1.07271,-1.76712 -2.24557,-3.88794 -2.60635,-4.71294 -0.36078,-0.825 -1.45473,-3.31115 -2.43099,-5.52478 -0.97627,-2.21363 -2.70995,-4.87087 -3.85263,-5.90499 -1.14269,-1.03411 -2.0824,-2.37296 -2.08826,-2.97522 -0.006,-0.60225 -1.58085,-2.62071 -3.5,-4.48545 -1.91914,-1.86475 -3.48935,-4.03355 -3.48935,-4.81956 0,-0.91708 -0.80613,-1.30611 -2.25,-1.08581 -1.2375,0.18881 -2.1375,0.89511 -2,1.56955 0.1375,0.67444 -0.2,1.22626 -0.75,1.22626 -0.55,0 -1,0.62686 -1,1.39301 0,0.76616 -0.72605,1.67163 -1.61345,2.01215 -1.02304,0.39258 -1.42333,1.3462 -1.09388,2.606 0.28576,1.09276 0.0878,2.25367 -0.43982,2.57978 -0.52766,0.32612 -1.9943,2.91407 -3.25919,5.751 -6.01507,13.49076 -28.21228,34.27658 -34.16474,31.99241 -0.67464,-0.25888 -1.52369,0.01 -1.88679,0.59748 -0.36309,0.58749 -0.18361,1.06817 0.39885,1.06817 0.58246,0 1.05902,0.85122 1.05902,1.89159 0,2.25918 4.19127,3.6116 6.82478,2.20219 1.65543,-0.88596 5.47638,-1.57002 14.17522,-2.53775 9.27907,-1.03228 18.07284,1.53708 9.79248,2.86116 -2.31413,0.37005 -6.21708,1.56174 -8.67321,2.6482 -3.66516,1.62127 -5.04822,1.78313 -7.71532,0.90291 -3.18246,-1.05031 -10.74334,-0.36922 -19.32918,1.74118 -3.71655,0.91353 -5.41998,3.29052 -2.3581,3.29052 1.03583,0 2.40858,0.52525 3.05055,1.16722 0.88962,0.88962 1.31937,0.77071 1.80699,-0.5 0.69099,-1.80071 7.22606,-2.38971 8.97579,-0.80897 0.5225,0.47203 3.875,1.43902 7.45,2.14887 3.575,0.70984 7.30199,1.69722 8.28221,2.19417 1.54117,0.78135 1.69557,0.55835 1.14159,-1.64887 -1.04311,-4.1561 3.12218,-3.24497 5.45993,1.19431 0.65073,1.23571 2.8556,3.10828 4.89971,4.16128 4.53383,2.33554 17.12012,15.09199 14.89068,15.09199 -0.85839,0 -2.14873,-0.7875 -2.86742,-1.75 -0.71868,-0.9625 -1.9817,-1.8939 -2.8067,-2.06979 -0.825,-0.17588 -2.85654,-1.62396 -4.51454,-3.21795 -2.16701,-2.08335 -3.63963,-2.73471 -5.23785,-2.31676 -1.53995,0.40271 -2.42349,0.0597 -2.87462,-1.11589 -0.46694,-1.21682 -0.86159,-1.35707 -1.39412,-0.49542 -0.54012,0.87394 -1.28334,0.66134 -2.72385,-0.77917 -4.79364,-4.79364 -15.37947,-2.39143 -10.99462,2.49498 0.8637,0.9625 1.88353,3.4375 2.26628,5.5 0.38274,2.0625 1.09582,3.75 1.58461,3.75 0.48879,0 0.88871,1.125 0.88871,2.5 0,3.6309 -2.13034,3.01584 -5,-1.44357 -10.3506,-16.08469 -13.95159,-20.43817 -15.56826,-18.8215 -0.69291,0.69291 3.20932,9.47339 4.40156,9.90402 1.60363,0.57923 2.64389,7.86105 1.123,7.86105 -0.85304,0 -0.69271,0.63379 0.49133,1.94214 1.36209,1.50509 1.55168,2.55993 0.84249,4.6875 -1.42814,4.28443 -3.27055,4.1247 -3.41774,-0.29631 -0.22508,-6.76048 -0.5459,-8.069 -2.92024,-11.91078 -1.8736,-3.03154 -2.51377,-3.47929 -3.26707,-2.28505 -1.05544,1.67322 -7.68011,0.26726 -7.69065,-1.63219 -0.017,-3.07029 -2.28005,-8.50531 -3.54142,-8.50531 -1.93496,0 -1.84067,1.91415 0.20566,4.17532 1.42206,1.57136 1.47419,2.22451 0.36542,4.57874 -0.71129,1.51027 -1.48633,4.99594 -1.72231,7.74594 -0.63124,7.35588 -4.23705,8.87765 -4.28646,1.80902 -0.008,-1.20504 -0.41546,-2.43829 -0.90453,-2.74055 -0.48907,-0.30227 -1.19913,-1.79132 -1.57791,-3.30902 -1.26418,-5.06531 -5.53287,-8.269 -5.53287,-4.15246 0,1.50915 -0.44816,1.93501 -1.57946,1.50089 -3.36448,-1.29107 -6.42054,0.43128 -6.42054,3.61851 0,6.80561 -8.04751,12.61153 -8.69575,6.27361 -0.22502,-2.2 -0.79862,-4.39059 -1.27467,-4.86798 -0.47605,-0.47739 -0.66278,-2.27739 -0.41496,-4 0.33136,-2.30328 -0.35922,-4.39994 -2.60987,-7.92382 -3.00682,-4.70782 -5.00475,-5.39945 -5.00475,-1.73252 0,1.02171 -0.5625,2.0662 -1.25,2.32109 -0.91357,0.3387 -0.77464,0.96145 0.51617,2.31378 1.37273,1.43817 2.15239,1.60949 3.5,0.76907 1.48155,-0.92396 1.76435,-0.66649 1.94357,1.76954 0.23385,3.17843 -1.09898,3.76463 -2.57257,1.13147 -0.63584,-1.13619 -1.99039,-1.64103 -3.99351,-1.4884 -1.96981,0.15009 -3.35779,-0.35245 -3.96369,-1.43512 -0.51884,-0.92712 -1.59393,-1.41224 -2.4239,-1.09375 -1.72629,0.66244 -2.92808,5.5123 -1.5734,6.34953 0.52299,0.32323 0.41768,1.16373 -0.24599,1.9634 -0.63824,0.76903 -0.91599,2.03523 -0.61724,2.81378 0.29876,0.77854 -0.001,2.16002 -0.66655,3.06995 -1.05742,1.44611 -1.38086,1.17505 -2.56888,-2.1528 -3.11552,-8.72711 -2.93478,-8.45745 -4.94683,-7.38064 -1.23213,0.65942 -3.03984,0.67493 -5.23652,0.0449 -5.61398,-1.61007 -6.49694,-0.71298 -9.91497,10.07364 -3.8679,12.20635 -3.76057,12.21513 -3.60948,-0.29515 z m 86.3069,-12.9375 c -0.31922,-0.79773 -0.55618,-0.56078 -0.60416,0.60417 -0.0434,1.05416 0.19293,1.64479 0.52522,1.3125 0.33229,-0.33229 0.36781,-1.1948 0.0789,-1.91667 z m -29.01644,-0.47917 c -0.36667,-0.36666 -0.66667,-0.0667 -0.66667,0.66667 0,0.73333 0.3,1.03333 0.66667,0.66667 0.36666,-0.36667 0.36666,-0.96667 0,-1.33334 z m 5.83333,-5.33333 c -0.33992,-0.55 -1.04148,-1 -1.55902,-1 -0.51754,0 -0.94098,0.45 -0.94098,1 0,0.55 0.70156,1 1.55902,1 0.85746,0 1.2809,-0.45 0.94098,-1 z m -3.48773,-3.97708 c -1.53597,-2.86998 -3.94203,-3.85625 -9.40749,-3.85625 -2.66096,0 -5.32561,-0.4875 -5.92145,-1.08334 -1.55813,-1.55813 -10.96593,-1.43113 -10.4419,0.14097 0.46895,1.40684 5.24862,2.70853 11.75857,3.2023 2.475,0.18773 5.175,0.58289 6,0.87813 8.64254,3.09294 9.31547,3.15325 8.01227,0.71819 z m -54.01227,-3.08194 c 0,-3.20085 0.61273,-3.39627 7.22274,-2.30356 2.40766,0.39802 3.9328,1.27727 4.31738,2.489 0.70709,2.22782 3.45988,2.52505 3.45988,0.37358 0,-1.66778 2.71134,-1.96826 4.95477,-0.54911 2.17532,1.37606 7.20846,-1.86124 6.47696,-4.16598 -0.66793,-2.10448 -0.96163,-2.08258 9.33963,-0.69625 8.8659,1.19316 14.37028,0.0592 9.22864,-1.90123 -7.4721,-2.84896 -28.26358,-21.86344 -32.07421,-29.33289 -2.77109,-5.43179 -8.5063,-25.18381 -9.61226,-33.10454 -0.43895,-3.14372 -0.9108,-3.75 -2.91857,-3.75 -1.31723,0 -2.39496,-0.45 -2.39496,-1 0,-1.26448 -3.28708,-1.30906 -4.55,-0.0617 -1.49752,1.47906 -21.38089,-0.56577 -23.41677,-2.40821 -2.12365,-1.92188 -4.10833,-1.94051 -6.5921,-0.0619 -1.06762,0.8075 -2.39113,1.47561 -2.94113,1.48468 -0.55,0.009 -0.33761,-0.40241 0.47197,-0.9144 1.25945,-0.79648 1.22151,-1.027 -0.26273,-1.59656 -0.95409,-0.36612 -2.36469,-0.14283 -3.13467,0.49619 -1.32303,1.09802 -3.64366,1.48345 -14.7719,2.45342 -2.58353,0.22519 -6.12569,1.122 -7.87146,1.9929 -3.56039,1.77615 -5.28068,1.29201 -4.47123,-1.25835 0.47751,-1.50449 -0.28449,-1.69029 -6.46234,-1.57564 -5.8258,0.10812 -7.58215,-0.2631 -10.44328,-2.20729 -2.95247,-2.00626 -3.83721,-2.17681 -6.24698,-1.20425 -1.54406,0.62316 -4.02599,1.06613 -5.51541,0.98437 -1.7418,-0.0956 -3.0699,0.52753 -3.72226,1.74647 -1.0773,2.01297 -7.06971,3.50228 -7.06971,1.75707 0,-0.6666 -0.38066,-0.64615 -1.0851,0.0583 -1.25985,1.25985 0.87797,6.03201 4.81439,10.74692 1.77277,2.12336 2.29745,3.68427 1.9024,5.65954 -0.36494,1.82467 -0.0774,2.90717 0.8687,3.27022 0.77781,0.29847 2.56407,2.36418 3.96945,4.59045 1.40539,2.22627 3.15486,4.04777 3.88772,4.04777 0.73285,0 2.18865,0.94607 3.23509,2.10238 1.04645,1.15631 3.14119,2.74286 4.65499,3.52568 1.5138,0.78281 2.75236,2.07091 2.75236,2.86244 0,1.75125 2.98027,3.42429 4.8892,2.74464 0.79017,-0.28133 1.11217,-0.0464 0.74675,0.54489 -1.27482,2.0627 0.61988,4.10762 6.19033,6.68109 3.12055,1.44165 6.94934,3.27861 8.50843,4.08214 1.55909,0.80352 5.83409,2.615 9.5,4.0255 3.66591,1.4105 8.43407,3.31455 10.59591,4.23122 2.16184,0.91666 4.41184,1.70156 5,1.7442 0.58816,0.0427 2.86938,0.9064 5.06938,1.91945 2.2,1.01305 6.925,2.61194 10.5,3.5531 4.67732,1.23135 6.82055,2.33881 7.64314,3.94939 0.98168,1.92205 1.2677,2.01561 2.025,0.66239 1.15914,-2.07127 8.28088,-1.06915 9.00023,1.26645 2.04781,6.64887 4.33163,7.72762 4.33163,2.04602 z m 16.5,-5.94098 c -4,-0.71619 -4,-0.71619 0,-0.84278 2.2,-0.0696 4.675,0.30962 5.5,0.84278 1.78736,1.15508 0.95126,1.15508 -5.5,0 z m -10.03985,-1.40548 c -1.79788,-1.31464 -1.7456,-1.37174 0.80887,-0.88343 1.50204,0.28714 2.73098,0.9196 2.73098,1.40549 0,1.2828 -1.34229,1.08483 -3.53985,-0.52206 z m -8.46015,-1.59452 c -1.33333,-0.86167 -1.33333,-0.96937 0,-0.96937 0.825,0 2.175,0.43621 3,0.96937 1.33333,0.86167 1.33333,0.96937 0,0.96937 -0.825,0 -2.175,-0.43621 -3,-0.96937 z m -12.25,-2.66228 c 0.6875,-0.27741 1.8125,-0.27741 2.5,0 0.6875,0.27741 0.125,0.50439 -1.25,0.50439 -1.375,0 -1.9375,-0.22698 -1.25,-0.50439 z m -5,-1 c 0.6875,-0.27741 1.8125,-0.27741 2.5,0 0.6875,0.27741 0.125,0.50439 -1.25,0.50439 -1.375,0 -1.9375,-0.22698 -1.25,-0.50439 z m -12.75,-3.83772 c 0,-0.275 0.225,-0.5 0.5,-0.5 0.275,0 0.5,0.225 0.5,0.5 0,0.275 -0.225,0.5 -0.5,0.5 -0.275,0 -0.5,-0.225 -0.5,-0.5 z m -8,-2 c 0,-0.275 0.225,-0.5 0.5,-0.5 0.275,0 0.5,0.225 0.5,0.5 0,0.275 -0.225,0.5 -0.5,0.5 -0.275,0 -0.5,-0.225 -0.5,-0.5 z m -6.5,-1.5 c -0.33992,-0.55 -0.16803,-1 0.38197,-1 0.55,0 1.27811,0.45 1.61803,1 0.33992,0.55 0.16803,1 -0.38197,1 -0.55,0 -1.27811,-0.45 -1.61803,-1 z m 14.5,-53 c 0,-0.73333 0.3,-1.03333 0.66667,-0.66667 0.36666,0.36667 0.36666,0.96667 0,1.33334 -0.36667,0.36666 -0.66667,0.0667 -0.66667,-0.66667 z m 105.41016,75.09928 c 2.0729,-2.29054 0.559,-3.68833 -2.32375,-2.14552 -1.07521,0.57543 -2.99701,1.08279 -4.27067,1.12746 -2.12335,0.0745 -2.0665,0.19534 0.68426,1.45489 3.90032,1.78593 3.89845,1.78607 5.91016,-0.43683 z m -93.42547,-2.47172 c 0.008,-0.47985 -0.65474,-0.31636 -1.47368,0.3633 -0.81894,0.67967 -1.21269,1.68281 -0.875,2.22921 0.61975,1.00278 2.31849,-0.87232 2.34868,-2.59251 z m 78.01531,1.87244 c 0,-0.275 -0.225,-0.5 -0.5,-0.5 -0.275,0 -0.5,0.225 -0.5,0.5 0,0.275 0.225,0.5 0.5,0.5 0.275,0 0.5,-0.225 0.5,-0.5 z m -79.33333,-6.16667 c -0.36667,-0.36666 -0.66667,-0.0667 -0.66667,0.66667 0,0.73333 0.3,1.03333 0.66667,0.66667 0.36666,-0.36667 0.36666,-0.96667 0,-1.33334 z m 86.33333,-4.22634 c 0,-0.49116 -0.675,-1.15203 -1.5,-1.46862 -1.52428,-0.58492 -2.04799,0.4803 -0.83333,1.69496 0.95569,0.9557 2.33333,0.82206 2.33333,-0.22634 z m 18.90451,-1.16601 c -0.71996,-0.44496 -1.71605,-0.55746 -2.21353,-0.25 -0.49748,0.30746 -0.31545,0.92308 0.40451,1.36804 0.71996,0.44496 1.71605,0.55746 2.21353,0.25 0.49748,-0.30746 0.31545,-0.92308 -0.40451,-1.36804 z m -35.40451,-1.42458 c -3.08695,-2.54536 -5.54416,-2.88779 -6.21713,-0.8664 -0.40483,1.21597 3.85013,3.14154 7.21713,3.26609 1.7074,0.0632 1.5611,-0.28792 -1,-2.39969 z m 5.5,2.04262 c 0,-0.24254 -0.45,-0.7191 -1,-1.05902 -0.55,-0.33992 -1,-0.14148 -1,0.44098 0,0.58246 0.45,1.05902 1,1.05902 0.55,0 1,-0.19844 1,-0.44098 z m 22,-0.059 c 0,-0.275 -0.225,-0.5 -0.5,-0.5 -0.275,0 -0.5,0.225 -0.5,0.5 0,0.275 0.225,0.5 0.5,0.5 0.275,0 0.5,-0.225 0.5,-0.5 z m -37,-4 c 0,-0.275 -0.225,-0.5 -0.5,-0.5 -0.275,0 -0.5,0.225 -0.5,0.5 0,0.275 0.225,0.5 0.5,0.5 0.275,0 0.5,-0.225 0.5,-0.5 z m 38.55,-15.40921 c 0.5225,-0.50007 3.30576,-1.59881 6.18502,-2.44165 16.23449,-4.7523 29.91567,-26.72572 21.73412,-34.90728 -2.75207,-2.75206 -9.66465,-4.65533 -10.27354,-2.82865 -0.19925,0.59772 -1.22477,1.08677 -2.27893,1.08677 -1.05417,0 -1.91667,0.675 -1.91667,1.5 0,1.69817 -1.56593,2.01136 -2.5,0.5 -1.12026,-1.81262 -1.97768,-1.04679 -3.80586,3.39931 -2.86664,6.97161 -8.59814,10.59449 -16.69414,10.55236 -3.5,-0.0182 -3.5,-0.0182 -1.13922,-1.98494 1.29844,-1.0817 3.40938,-1.96673 4.69099,-1.96673 3.03631,0 3.96754,-1.59125 1.71926,-2.9378 -1.6854,-1.00944 -1.68642,-1.12653 -0.021,-2.42171 0.9625,-0.74854 1.76431,-1.98637 1.7818,-2.75073 0.0233,-1.01844 0.38493,-0.92467 1.35344,0.35093 1.52969,2.01472 4.61476,-0.33207 4.61476,-3.51041 0,-1.94346 -1.62755,-3.14194 -2.45301,-1.80632 -1.23406,1.99676 -6.58573,-0.9205 -5.99882,-3.27002 0.76127,-3.04749 -4.83474,-3.23411 -7.9503,-0.26514 -1.21849,1.16116 -3.00205,2.5612 -3.96346,3.1112 -2.14353,1.22626 -2.65644,10.5636 -0.70916,12.90993 3.87092,4.66418 -0.35708,3.40155 -5.06152,-1.51155 -5.39821,-5.6376 -8.86376,-12.78574 -8.86376,-18.28259 0,-1.65848 -0.54896,-2.61579 -1.5,-2.61579 -1.80163,0 -1.85734,-0.45495 -0.35105,-2.8669 0.83878,-1.34309 0.85861,-2.67267 0.0735,-4.92495 -0.85022,-2.43894 -0.77669,-3.33318 0.35104,-4.26911 1.57533,-1.30741 1.83002,-3.75518 0.59342,-5.70328 -1.13453,-1.7873 -7.16687,1.30242 -7.16687,3.67082 0,2.47178 -1.08179,3.27043 -2.65799,1.9623 -0.99326,-0.82433 -1.73182,-0.79026 -2.84201,0.13112 -2.18388,1.81246 -1.8374,2.78715 0.81082,2.28092 4.22889,-0.80841 5.13788,1.74991 3.67025,10.32976 -1.31418,7.68273 -3.28773,10.37964 -5.15455,7.04381 -3.7316,-6.66801 -8.09349,7.53712 -5.21267,16.9758 5.17821,16.96578 17.85075,24.65105 42.38615,25.70511 3.575,0.15358 6.7475,0.36595 7.05,0.47192 0.3025,0.10597 0.9775,-0.21646 1.5,-0.71653 z m -6.21667,-35.75746 c 0.36667,-0.36666 0.96667,-0.36666 1.33334,0 0.36666,0.36665 0.0667,0.66665 -0.66667,0.66665 -0.73333,0 -1.03333,-0.3 -0.66667,-0.66667 z m -235.52083,-3.27085 c 0.25,-0.75 -0.125,-1.125 -0.875,-0.875 -0.72188,0.24062 -1.50938,1.02812 -1.75,1.75 -0.25,0.75 0.125,1.125 0.875,0.875 0.72187,-0.24063 1.50937,-1.02813 1.75,-1.75 z m 315.95833,-4.25 c -0.61807,-1.85422 -2.77083,-2.16176 -2.77083,-0.39583 0,0.87083 0.7125,1.58333 1.58333,1.58333 0.87084,0 1.40521,-0.53438 1.1875,-1.1875 z m -14.77083,-1.3125 c 0,-0.275 -0.225,-0.5 -0.5,-0.5 -0.275,0 -0.5,0.225 -0.5,0.5 0,0.275 0.225,0.5 0.5,0.5 0.275,0 0.5,-0.225 0.5,-0.5 z m -250,-2 c 0,-0.275 -0.225,-0.5 -0.5,-0.5 -0.275,0 -0.5,0.225 -0.5,0.5 0,0.275 0.225,0.5 0.5,0.5 0.275,0 0.5,-0.225 0.5,-0.5 z m 277.72917,-0.10417 c -0.33229,-0.33229 -1.1948,-0.36781 -1.91667,-0.0789 -0.79773,0.31922 -0.56078,0.55618 0.60417,0.60416 1.05416,0.0434 1.64479,-0.19293 1.3125,-0.52522 z m -134.33616,-1.97762 c 1.5953,-4.15728 0.63464,-5.97582 -1.39675,-2.64404 -2.37192,3.89031 -2.41982,4.22583 -0.60325,4.22583 0.76616,0 1.66616,-0.7118 2,-1.58179 z m -1.03794,-6.00097 c 0.83526,-0.32052 1.26951,-1.232 0.965,-2.02552 -0.42514,-1.10791 -0.87468,-1.17633 -1.93685,-0.2948 -2.41658,2.00558 -1.83381,3.39695 0.97185,2.32032 z m 5.64493,0.0828 c 0,-0.275 -0.225,-0.5 -0.5,-0.5 -0.275,0 -0.5,0.225 -0.5,0.5 0,0.275 0.225,0.5 0.5,0.5 0.275,0 0.5,-0.225 0.5,-0.5 z m -199.33333,-1.16671 c -0.36667,-0.36666 -0.96667,-0.36666 -1.33334,0 -0.36666,0.36667 -0.0667,0.66667 0.66667,0.66667 0.73333,0 1.03333,-0.3 0.66667,-0.66667 z m 167.01644,-7.52083 c -0.31922,-0.79773 -0.55618,-0.56078 -0.60416,0.60417 -0.0434,1.05416 0.19293,1.64479 0.52522,1.3125 0.33229,-0.3323 0.36781,-1.1948 0.0789,-1.91667 z m 87.6427,-7.96724 c 0.53279,-0.84464 0.66136,-2.76026 0.28572,-4.25693 -0.91369,-3.6404 -3.99144,-3.1168 -4.4361,0.75469 -0.6123,5.33103 1.74309,7.31859 4.15038,3.50224 z m -37.32581,-1.34526 c 0,-0.275 -0.225,-0.5 -0.5,-0.5 -0.275,0 -0.5,0.225 -0.5,0.5 0,0.275 0.225,0.5 0.5,0.5 0.275,0 0.5,-0.225 0.5,-0.5 z m 32.17736,-5.57948 c 3.37723,-10.76557 1.56188,-14.48722 -2.85452,-5.85208 -2.20902,4.31918 -3.01813,9.90294 -1.63534,11.28573 1.46247,1.46247 2.85528,-0.2231 4.48986,-5.43365 z m 33.29698,-0.92052 c 1.32452,0 3.92629,-4.9327 3.05916,-5.79984 -0.29776,-0.29776 -1.58111,0.43539 -2.85189,1.62923 -1.27078,1.19384 -3.01391,2.17061 -3.87362,2.17061 -2.16823,0 -4.15631,2.64991 -3.42258,4.56198 0.53402,1.39163 0.93452,1.33153 3.24673,-0.48727 1.45067,-1.14109 3.17966,-2.07471 3.8422,-2.07471 z m -15.72434,-1.68748 c 2.63557,-3.57337 0.56781,-5.13695 -3.04019,-2.29889 -1.3889,1.0925 -2.99023,1.98637 -3.55852,1.98637 -1.38224,0 -2.40997,1.77243 -1.69682,2.92633 0.8189,1.32501 6.77446,-0.55151 8.29553,-2.61381 z m 7.69297,0.75049 c 2.02958,-2.24265 1.28709,-4.26844 -1.225,-3.34228 -1.98215,0.73078 -3.18072,2.23871 -3.20266,4.02927 -0.0231,1.88423 2.44768,1.50087 4.42766,-0.68699 z m -19.44297,-0.063 c 0,-0.55 0.9,-1 2,-1 1.11111,0 2,-0.66667 2,-1.5 0,-1.57004 -1.73831,-1.92139 -4.41821,-0.89301 -1.71857,0.65947 -2.21302,4.39301 -0.58179,4.39301 0.55,0 1,-0.45 1,-1 z m -65.60699,-12.5818 c 1.00882,-2.62893 0.7008,-3.41821 -1.33399,-3.41821 -2.35618,0 -3.2744,1.27517 -2.45528,3.40976 0.78499,2.04563 3.00563,2.05059 3.78927,0.008 z m 5.8034,-10.80321 c 6.49428,-12.72983 7.75147,-26.06717 2.25843,-23.9593 -0.7158,0.27468 -1.78008,-0.39489 -2.36506,-1.48794 -0.7139,-1.33394 -1.72724,-1.81382 -3.08202,-1.45954 -1.11013,0.29031 -2.57852,0.0897 -3.26309,-0.44576 -3.35843,-2.627 -10.74467,-1.73028 -10.74467,1.30444 0,0.74148 -0.78685,1.04009 -1.94358,0.7376 -4.31993,-1.12968 -7.05642,3.75077 -7.05642,12.58495 0,12.7183 2.08171,15.14667 14.26322,16.6385 3.16976,0.38819 6.02233,1.12506 6.33902,1.63748 0.86251,1.39556 3.26838,-0.9915 5.59417,-5.55043 z m -11.6537,-23.5459 c -0.81824,-1.32394 0.97101,-2.19294 2.95089,-1.43318 1.33422,0.51199 1.4033,0.81406 0.34025,1.48793 -1.7379,1.10165 -2.58516,1.08756 -3.29114,-0.0548 z m 5.79062,-0.73577 c 0.36667,-0.36666 0.96667,-0.36666 1.33334,0 0.36666,0.36667 0.0667,0.66667 -0.66667,0.66667 -0.73333,0 -1.03333,-0.3 -0.66667,-0.66667 z m -33.53268,23.46602 c 0.93421,-0.93421 1.98798,-0.91595 4.74844,0.0822 5.91696,2.1396 9.70837,-11.92645 5.38975,-19.99586 -1.22698,-2.29264 -20.45225,-2.28688 -24.73918,0.007 -1.39131,0.74461 -2.84277,0.8487 -3.94966,0.28324 -2.42165,-1.23709 -30.40924,0.49565 -45.25,2.80148 -16.3506,2.54041 -19.21948,2.87515 -20.48373,2.39001 -0.72268,-0.27732 -1.61104,-0.0235 -1.97414,0.56396 -0.40754,0.65942 0.40038,1.06817 2.11129,1.06817 1.8239,0 3.52291,0.94021 4.96938,2.75 2.36841,2.9633 3.14561,2.84977 3.66215,-0.53495 0.53153,-3.48291 1.39668,-3.56469 3.76878,-0.35625 2.61771,3.54064 6.08895,5.13177 10.94627,5.01747 3.4952,-0.0822 5.42909,0.15344 16.24354,1.9796 10.67461,1.80254 24.47103,2.36725 26.8414,1.09867 1.818,-0.97296 2.36796,-0.89664 3.11139,0.4318 0.53401,0.95422 2.21089,1.61992 4.10336,1.62897 1.76017,0.008 3.87531,0.45153 4.70031,0.98469 2.04526,1.32175 4.35826,1.24174 5.80065,-0.20065 z m 58.34935,-26.29935 c 0,-0.5225 -0.48375,-1.11125 -1.075,-1.30833 -0.59125,-0.19709 -1.075,0.39166 -1.075,1.30833 0,0.91667 0.48375,1.50542 1.075,1.30833 0.59125,-0.19708 1.075,-0.78583 1.075,-1.30833 z m -20.15,-2 c 0,-0.275 -0.225,-0.5 -0.5,-0.5 -0.275,0 -0.5,0.225 -0.5,0.5 0,0.275 0.225,0.5 0.5,0.5 0.275,0 0.5,-0.225 0.5,-0.5 z m 52,182.5 c 0,-0.73333 0.3,-1.03333 0.66667,-0.66667 0.36666,0.36667 0.36666,0.96667 0,1.33334 -0.36667,0.36666 -0.66667,0.0667 -0.66667,-0.66667 z m 36,-4.5 c 0,-0.275 0.225,-0.5 0.5,-0.5 0.275,0 0.5,0.225 0.5,0.5 0,0.275 -0.225,0.5 -0.5,0.5 -0.275,0 -0.5,-0.225 -0.5,-0.5 z m -13,-5 c 0,-0.275 0.225,-0.5 0.5,-0.5 0.275,0 0.5,0.225 0.5,0.5 0,0.275 -0.225,0.5 -0.5,0.5 -0.275,0 -0.5,-0.225 -0.5,-0.5 z m 65.54452,-81.42797 c -0.70534,-1.14126 1.87188,-2.07203 5.73727,-2.07203 1.8252,0 2.72428,0.35983 2.16821,0.86776 -1.42225,1.29914 -7.29404,2.19361 -7.90548,1.20427 z m 11.45548,-3.57203 c 0,-0.275 0.225,-0.5 0.5,-0.5 0.275,0 0.5,0.225 0.5,0.5 0,0.275 -0.225,0.5 -0.5,0.5 -0.275,0 -0.5,-0.225 -0.5,-0.5 z m 10.5,-3.5 c 0.33992,-0.55 0.84303,-1 1.11803,-1 0.275,0 0.22189,0.45 -0.11803,1 -0.33992,0.55 -0.84303,1 -1.11803,1 -0.275,0 -0.22189,-0.45 0.11803,-1 z m -21.6875,-7.68311 c 0.72187,-0.28887 1.58438,-0.25335 1.91667,0.0789 0.33229,0.33229 -0.25834,0.56864 -1.3125,0.52522 -1.16495,-0.048 -1.4019,-0.28494 -0.60417,-0.60416 z m 30.1875,-0.19886 c 0,-0.55 0.45,-1.27811 1,-1.61803 0.55,-0.33992 1,-0.16803 1,0.38197 0,0.55 -0.45,1.27811 -1,1.61803 -0.55,0.33992 -1,0.16803 -1,-0.38197 z m -36.5,-5.11803 c 0.33992,-0.55 0.84303,-1 1.11803,-1 0.275,0 0.22189,0.45 -0.11803,1 -0.33992,0.55 -0.84303,1 -1.11803,1 -0.275,0 -0.22189,-0.45 0.11803,-1 z m -23.5,-8.84501 c 0,-0.46476 0.9,-1.6595 2,-2.65499 2.27162,-2.05579 3.01592,0.0841 0.8,2.3 -1.39417,1.39417 -2.8,1.5724 -2.8,0.35499 z m 21.03777,-3.11435 c 1.90423,-1.62765 3.91223,-2.95936 4.46223,-2.95936 0.55,0 -0.558,1.33171 -2.46223,2.95936 -1.90422,1.62765 -3.91222,2.95936 -4.46222,2.95936 -0.55,0 0.558,-1.33171 2.46222,-2.95936 z m 14.06794,-1.62235 c 0.6689,-1.60506 2.26876,-3.90921 3.55524,-5.12032 1.28648,-1.21112 2.34594,-3.01112 2.35436,-4 0.0287,-3.37309 1.53191,-4.55633 4.85977,-3.82541 1.71871,0.37749 3.12492,0.90518 3.12492,1.17264 0,1.9417 -2.4946,4.19791 -5.87496,5.31353 -2.78603,0.91948 -4.35256,2.17634 -5.16889,4.14714 -0.64423,1.5553 -1.82277,3.36847 -2.61898,4.02926 -1.24978,1.03724 -1.28142,0.80258 -0.23146,-1.71684 z m -29.58157,-3.91829 c 3.04387,-8.85604 4.08141,-11.41202 5.84766,-14.40558 1.27644,-2.16341 2.18621,-2.92039 2.47361,-2.0582 0.25002,0.75008 -0.0629,1.53628 -0.69541,1.74711 -0.6325,0.21084 -1.15,1.63515 -1.15,3.16514 0,1.53 -0.9,3.92598 -2,5.3244 -1.1,1.39842 -2,2.9481 -2,3.44373 0,0.49563 -0.71174,1.77465 -1.58164,2.84227 -1.55936,1.91379 -1.57195,1.91296 -0.89422,-0.0589 z m 27.69065,-6.75 c 0.61091,-1.7875 2.1625,-4.81696 3.44798,-6.73213 1.28548,-1.91518 2.33723,-4.05268 2.33723,-4.75 0,-0.69733 0.63017,-1.26787 1.40039,-1.26787 2.79289,0 1.08364,5.64432 -3.29184,10.87035 -5.04614,6.02706 -5.36359,6.1803 -3.89376,1.87965 z m -18.21479,-14.75 c 0,-0.55 0.47656,-1 1.05902,-1 0.58246,0 0.7809,0.45 0.44098,1 -0.33992,0.55 -0.81648,1 -1.05902,1 -0.24254,0 -0.44098,-0.45 -0.44098,-1 z m 7.33333,-0.66667 c 0.36667,-0.36666 0.96667,-0.36666 1.33334,0 0.36666,0.36667 0.0667,0.66667 -0.66667,0.66667 -0.73333,0 -1.03333,-0.3 -0.66667,-0.66667 z m -10.33333,-4.33333 c -0.79314,-0.49019 -1.11011,-1.22322 -0.70437,-1.62896 0.40574,-0.40574 1.2627,-0.21271 1.90437,0.42896 1.51091,1.51091 0.66759,2.35423 -1.2,1.2 z m -6,-5 c 0,-0.73333 0.3,-1.03333 0.66667,-0.66667 0.36666,0.36667 0.36666,0.96667 0,1.33334 -0.36667,0.36666 -0.66667,0.0667 -0.66667,-0.66667 z m 10.33333,0.33333 c 0.36667,-0.36666 0.96667,-0.36666 1.33334,0 0.36666,0.36667 0.0667,0.66667 -0.66667,0.66667 -0.73333,0 -1.03333,-0.3 -0.66667,-0.66667 z m 100.66667,-4.83333 c 0,-0.275 0.225,-0.5 0.5,-0.5 0.275,0 0.5,0.225 0.5,0.5 0,0.275 -0.225,0.5 -0.5,0.5 -0.275,0 -0.5,-0.225 -0.5,-0.5 z m -130.88045,-4.12882 c -1.23428,-0.86452 -3.00361,-1.39776 -3.93185,-1.18497 -0.92823,0.21279 -2.65447,-0.61278 -3.83608,-1.83461 -2.39088,-2.47227 -2.02907,-3.78453 0.64838,-2.3516 0.95537,0.5113 2.02903,0.63763 2.38592,0.28075 2.28343,-2.28344 9.61408,-0.96902 9.61408,1.72385 0,3.9243 -2.0577,5.34372 -4.88045,3.36658 z m 108.89544,-3.34317 c -0.59695,-1.11541 -2.08772,-2.02801 -3.31283,-2.02801 -1.2251,0 -3.0723,-1.125 -4.10488,-2.5 -2.1176,-2.81982 -3.59728,-3.23116 -3.59728,-1 0,0.825 0.45,1.5 1,1.5 0.55,0 1,0.45 1,1 0,0.55 -1.125,1 -2.5,1 -1.375,0 -2.5,-0.49041 -2.5,-1.08981 0,-1.25175 -5.11518,-6.91019 -6.24675,-6.91019 -0.41429,0 -0.75325,0.93214 -0.75325,2.07143 0,1.13928 -0.675,2.74643 -1.5,3.57143 -0.825,0.825 -1.5,1.05361 -1.5,0.50802 0,-0.54558 -1.35,-1.28848 -3,-1.65088 -1.65,-0.3624 -3,-1.30929 -3,-2.10421 0,-0.79491 -1.22225,-1.90999 -2.71612,-2.47796 -1.85713,-0.70608 -2.32404,-1.27498 -1.47636,-1.79887 0.91385,-0.56479 0.66939,-1.2726 -0.92999,-2.69258 -1.19335,-1.05951 -2.3363,-1.47638 -2.53989,-0.92638 -0.85899,2.32061 -2.27725,3.89372 -2.92577,3.24521 -0.38328,-0.38328 -0.1089,-1.40534 0.60973,-2.27123 2.07443,-2.49954 -0.81767,-4.88221 -4.31301,-3.55329 -1.73468,0.65953 -2.84691,0.66452 -3.2486,0.0146 -0.33594,-0.54357 -1.31516,-0.86388 -2.17604,-0.71179 -0.98877,0.17468 -1.9738,-0.90419 -2.67459,-2.9294 -2.56016,-7.39857 -5.15495,-6.93653 -3.53244,0.629 0.61512,2.86821 0.81196,5.52138 0.43741,5.89592 -1.20344,1.20343 -6.51433,0.73954 -6.51433,-0.56902 0,-0.6875 -0.8449,-1.25 -1.87756,-1.25 -1.03265,0 -2.43775,-0.675 -3.12244,-1.5 -0.68469,-0.825 -1.70069,-1.5 -2.25777,-1.5 -1.45516,0 -5.74223,-4.84722 -5.74223,-6.4925 0,-2.07697 -1.92532,-2.86569 -2.61405,-1.07088 -0.92047,2.3987 -8.38595,-2.30453 -8.38595,-5.28312 0,-2.64961 -4.25374,-3.46857 -5.9989,-1.15495 -1.33133,1.76497 -2.19377,2.06425 -4.09387,1.42061 -1.32398,-0.44847 -2.7921,-0.71046 -3.26249,-0.5822 -1.41996,0.38719 -3.64474,-1.96436 -3.64474,-3.85242 0,-1.86766 -2.54905,-3.38128 -4.09024,-2.42877 -0.50037,0.30925 -0.90976,-0.36429 -0.90976,-1.49675 0,-2.62291 -1.61089,-2.6546 -3,-0.059 -1.27648,2.38512 -4.41169,2.5552 -8.43425,0.45755 -1.61383,-0.84157 -3.58998,-1.27849 -4.39144,-0.97094 -1.19974,0.46038 -1.2339,0.29011 -0.19331,-0.96372 1.05911,-1.27615 0.9449,-1.52289 -0.70492,-1.52289 -2.67093,0 -8.29928,-2.89689 -8.95664,-4.60995 -0.29338,-0.76455 -1.10779,-1.39007 -1.8098,-1.39007 -0.70201,0 -1.51222,-0.90186 -1.80047,-2.00413 -0.33678,-1.28787 -1.06561,-1.79632 -2.03931,-1.42268 -0.85045,0.32635 -2.4721,-0.37543 -3.69625,-1.59958 -1.19956,-1.19956 -2.69685,-2.26849 -3.32731,-2.37541 -0.63047,-0.10691 -2.2713,-0.82784 -3.6463,-1.60207 -1.375,-0.77422 -5.66373,-3.00258 -9.53052,-4.9519 -3.86678,-1.94933 -8.63426,-4.78173 -10.59439,-6.29423 -1.96013,-1.5125 -3.99237,-2.75 -4.51609,-2.75 -1.01676,0 -3.53018,-1.77935 -8.9372,-6.327 -2.33476,-1.96368 -3.98124,-2.63021 -5.39151,-2.18261 -1.45091,0.4605 -2.03029,0.19711 -2.03029,-0.923 0,-1.00521 -0.89667,-1.56739 -2.5,-1.56739 -1.375,0 -2.5,-0.45 -2.5,-1 0,-0.55 -0.65455,-1 -1.45455,-1 -0.8,0 -2.57954,-1.125 -3.95454,-2.5 -1.375,-1.375 -3.19546,-2.5 -4.04546,-2.5 -0.85,0 -1.54545,-0.45 -1.54545,-1 0,-0.55 -1.54234,-1 -3.42742,-1 -2.43292,0 -3.97876,-0.70091 -5.32754,-2.4156 -1.34276,-1.70706 -2.31735,-2.15153 -3.32258,-1.51532 -2.02608,1.28233 -2.92246,1.1406 -2.92246,-0.46209 0,-0.76615 0.675,-1.65203 1.5,-1.96861 2.22031,-0.85202 1.83256,-2.958607 -0.43542,-2.365518 -1.11897,0.292618 -2.16034,-0.08003 -2.46861,-0.883368 -0.31447,-0.819496 -1.96792,-1.389492 -4.03066,-1.389492 -1.9236,0 -4.97522,-0.626974 -6.78138,-1.393275 -4.44853,-1.887383 -14.02076,-4.599424 -16.37182,-4.638528 -1.05166,-0.01749 -2.78562,-0.692492 -3.85324,-1.5 -3.89451,-2.945658 -11.4113,0.537026 -11.52727,5.34082 -0.0174,0.719959 -0.50413,1.016976 -1.08167,0.660037 -0.6557,-0.405243 -0.0908,-1.90659 1.50399,-3.997531 1.61454,-2.11677 2.16384,-3.589728 1.49324,-4.004181 -1.58139,-0.977352 -6.14837,0.429025 -5.7057,1.75704 0.44332,1.329973 -3.12054,5.229867 -3.98723,4.363177 -0.31851,-0.318509 -0.0812,-1.671837 0.52729,-3.007396 1.12842,-2.47661 -0.60206,-5.427141 -2.49637,-4.256394 -0.44136,0.272771 -2.82357,0.07909 -5.29381,-0.430406 -7.68238,-1.584516 -11.99134,-1.898455 -11.99134,-0.873657 0,0.539162 -0.70532,0.980294 -1.56739,0.980294 -1.16369,0 -1.38925,-0.579504 -0.87577,-2.25 0.38039,-1.2375 0.35485,-1.931636 -0.0568,-1.542525 -0.41161,0.389112 -1.48001,-0.163361 -2.37423,-1.227716 -2.02221,-2.406945 -10.63591,-4.034934 -9.94096,-1.878839 0.24802,0.769494 2.33288,1.823008 4.63303,2.341141 2.95617,0.665914 4.18207,1.454725 4.18207,2.690983 0,2.788252 -1.96445,3.248981 -4.33948,1.017752 -1.21082,-1.137505 -2.71746,-1.733641 -3.36697,-1.332221 -1.76094,1.088321 -22.11128,0.03014 -24.19576,-1.258136 -0.60373,-0.37316 -1.09774,-1.551915 -1.09774,-2.619456 0,-2.05491 -3.69727,-2.768093 -5.55,-1.070564 -0.54231,0.496877 -3.49737,0.344005 -6.88583,-0.356217 -6.74585,-1.394028 -14.56417,-0.873707 -14.56417,0.969267 0,0.822012 1.88642,1.225163 5.75,1.228845 14.62636,0.01394 18.19508,0.804156 18.23469,4.037686 0.0172,1.408122 -3.08205,1.691781 -4.53469,0.415031 -2.3022,-2.02344 -10.64769,-0.08881 -10.04117,2.327723 0.74629,2.973476 -1.59947,4.927199 -4.91636,4.094711 -1.39343,-0.349728 -3.42428,-0.159146 -4.51299,0.423517 -1.40484,0.751845 -2.57726,0.739461 -4.03867,-0.04266 -1.72853,-0.92508 -2.00954,-0.826954 -1.75,0.611073 0.44344,2.456935 -1.89725,2.920891 -2.65714,0.526681 -0.36232,-1.141576 -1.21603,-1.781462 -1.98371,-1.486873 -0.74121,0.284429 -1.64473,0.03647 -2.00783,-0.551029 -1.06921,-1.730019 -3.268,-1.224464 -3.81775,0.877794 -0.58997,2.25606 -4.32541,2.46002 -6.81149,0.371918 -2.12814,-1.78745 -7.90738,-0.652395 -7.9282,1.557114 -0.013,1.376554 -0.15592,1.402731 -0.93497,0.171214 -0.76201,-1.204588 -1.32305,-1.237891 -3.27304,-0.194286 -1.60307,0.857932 -3.13825,0.965836 -4.81504,0.338435 -1.3539,-0.506585 -3.36164,-0.563285 -4.46164,-0.125999 -1.1,0.437286 -4.53261,0.826694 -7.62803,0.865351 -4.65915,0.05818 -5.89822,0.457626 -7.19755,2.320285 -1.52062,2.179911 -1.57115,2.186169 -1.62197,0.200888 -0.0843,-3.293319 -17.05245,-7.57476 -17.05245,-4.302711 0,1.257978 6.42139,3.910963 8.70763,3.59754 0.9858,-0.135144 1.90016,0.204283 2.03191,0.754283 0.14689,0.613207 -3.42851,1 -9.24372,1 -5.21579,0 -9.48609,-0.386284 -9.48954,-0.858408 -0.003,-0.472124 -1.07979,-0.588974 -2.39186,-0.259666 -1.51229,0.37956 -2.84019,0.05096 -3.62746,-0.897637 -1.08999,-1.313361 -1.44715,-1.259707 -2.92015,0.438679 -2.3811,2.745432 -44.035475,2.965516 -46.753965,0.247028 -1.20496,-1.204965 -1.76411,-1.316226 -2.06583,-0.411067 -0.50266,1.507994 -4.87399,1.653664 -5.77703,0.192513 -0.44038,-0.71255 -1.04041,-0.72293 -1.87246,-0.03239 -0.67342,0.558892 -2.53572,0.778381 -4.13844,0.487752 -5.48593,-0.994789 -4.65083,-2.315771 2.28132,-3.60865 9.6478,-1.79936 10.77983,-2.063477 11.75959,-2.743661 0.55,-0.381832 3.025,-1.255789 5.5,-1.942127 2.475,-0.686339 5.92746,-1.683852 7.67213,-2.216697 1.74467,-0.532845 4.78032,-0.860503 6.74589,-0.728129 1.96557,0.132374 4.11561,-0.301169 4.77787,-0.96343 0.662265,-0.66226 2.257525,-1.20411 3.545015,-1.20411 1.2875,0 5.135,-0.847253 8.55,-1.882783 3.41501,-1.035531 9.27474,-2.439967 13.02164,-3.120968 3.7469,-0.681001 8.56267,-2.083748 10.7017,-3.117216 2.13903,-1.033468 5.40421,-1.879033 7.25595,-1.879033 1.85175,0 5.68932,-0.689713 8.52796,-1.532696 2.83863,-0.842983 6.72244,-1.427549 8.63069,-1.299035 2.04412,0.137664 4.20939,-0.419438 5.27036,-1.35601 2.88231,-2.544378 7.91697,-3.254881 8.69511,-1.227075 0.74259,1.935135 10.37262,1.409962 11.63622,-0.63458 0.37468,-0.606241 2.65858,-1.362899 5.07535,-1.681462 2.41677,-0.318563 5.38315,-1.220818 6.59197,-2.005011 1.20881,-0.784193 3.45881,-1.341745 5,-1.239006 4.44427,0.296269 5.30215,0.06682 5.30215,-1.418136 0,-1.54234 1.75574,-2.459438 7,-3.656402 1.925,-0.439367 6.2,-1.473534 9.5,-2.298148 6.99577,-1.748126 16.29403,-2.095114 29.25,-1.091538 6.67065,0.516712 9.25,0.398983 9.25,-0.422195 0,-0.702972 -2.00895,-1.150876 -5.25,-1.170509 -6.62654,-0.04014 -10.57896,-2.407579 -5.77937,-3.461746 4.06996,-0.893914 19.20302,0.38319 25.52937,2.154466 2.75,0.769956 9.21381,1.634477 14.36402,1.921158 5.95161,0.331289 10.21749,1.080451 11.70602,2.055777 1.28811,0.843997 2.6993,1.323666 3.13598,1.065932 0.95111,-0.561345 15.35124,1.700946 20.29398,3.188226 1.925,0.579237 10.025,2.904358 18,5.166936 7.975,2.262578 15.85,4.701172 17.5,5.419098 1.65,0.717927 5.52716,1.822833 8.61591,2.455347 3.08875,0.632514 6.46375,1.791945 7.5,2.576514 2.19249,1.659985 5.56224,1.911943 6.95422,0.51997 0.94046,-0.940464 17.76665,3.492682 22.05526,5.810832 1.03104,0.557314 2.66211,1.257023 3.62461,1.55491 3.48412,1.078313 1.87982,2.844698 -2,2.20206 -2.0625,-0.341625 -4.93806,-0.612477 -6.39013,-0.601894 -1.45207,0.01058 -2.90045,-0.659139 -3.21861,-1.48827 -0.7312,-1.905477 -5.64126,-2.017611 -5.64126,-0.128833 0,0.758273 1.35,1.937868 3,2.62132 9.55743,3.958818 -0.26226,3.446365 -13.25882,-0.691928 -2.61736,-0.833403 -5.44621,-1.251505 -6.28634,-0.929116 -0.84013,0.322389 -3.42366,-0.07444 -5.74118,-0.881844 -5.23829,-1.824979 -9.01499,-1.93483 -8.49576,-0.247112 0.57845,1.880204 8.84097,5.661863 12.47308,5.70878 1.75504,0.02267 3.47022,0.493034 3.81151,1.045251 0.34129,0.552217 2.34843,0.786929 4.46031,0.521583 2.79536,-0.35122 3.9941,-0.08031 4.40711,0.99597 0.34392,0.896255 1.88262,1.478416 3.90758,1.478416 1.83714,0 4.21376,0.660688 5.28138,1.468197 1.06762,0.807508 3.0307,1.482508 4.36239,1.5 1.33169,0.01749 3.13169,0.638378 4,1.379747 0.86831,0.741369 3.82874,1.909916 6.57874,2.596771 2.75,0.686853 7.37867,2.164113 10.28594,3.282783 2.90726,1.11868 5.52976,1.79014 5.82777,1.49213 0.64184,-0.64184 -6.59498,-5.719628 -8.15156,-5.719628 -0.59048,0 -2.59844,-1.125 -4.46215,-2.5 -1.86371,-1.375 -4.22448,-2.5 -5.24616,-2.5 -2.04885,0 -9.7339,-4.093207 -9.74614,-5.190983 -0.0152,-1.362017 1.94358,-1.85971 3.70162,-0.94053 5.7414,3.001846 15.2339,7.133243 16.41339,7.143558 0.75751,0.0066 3.33191,1.12946 5.72089,2.495189 4.34361,2.483144 4.34361,2.483144 6.14259,0.26149 1.98876,-2.456007 4.50276,-1.75678 9.10736,2.533055 1.17001,1.090039 3.09011,2.085629 4.26688,2.212429 1.17676,0.1268 2.70207,0.28798 3.38957,0.35817 0.6875,0.0702 1.25,0.69438 1.25,1.38707 0,0.6927 0.9,1.82152 2,2.50848 1.18552,0.74037 2,0.83833 2,0.24055 0,-1.83702 3.9608,-1.04485 5.24153,1.04832 0.69216,1.13123 2.72643,2.97131 4.52061,4.08906 1.79417,1.11774 4.57145,3.34158 6.17173,4.94185 1.80616,1.80617 3.50812,2.67991 4.48786,2.30395 0.86805,-0.3331 1.57827,-0.0978 1.57827,0.52279 0,1.96964 4.72485,3.5588 6.41368,2.15719 1.1903,-0.98786 2.3161,-0.72827 5.86747,1.35298 5.28466,3.09701 6.70355,3.23288 6.0086,0.57538 -0.67059,-2.56435 2.06813,-2.71966 3.90355,-0.22136 2.26923,3.0888 11.36708,10.22136 13.03772,10.22136 0.88127,0 1.77382,0.51453 1.98345,1.1434 0.28123,0.8437 0.92214,0.85386 2.44519,0.0387 1.58348,-0.84745 2.50368,-0.77182 3.9522,0.3248 2.7108,2.05226 3.16462,1.83973 2.68386,-1.25694 -0.40981,-2.63968 -0.36413,-2.67213 1.13867,-0.80887 0.86109,1.06762 1.56561,2.30512 1.56561,2.75 0,1.18922 2.77411,0.98655 3.18041,-0.23235 0.49961,-1.49883 6.81959,1.85083 6.81959,3.61446 0,0.78472 0.9,1.42676 2,1.42676 1.15152,0 2,0.66667 2,1.57143 0,1.42857 0.14286,1.42857 1.57143,0 1.73875,-1.73875 4.42857,-2.11036 4.42857,-0.61183 0,2.43957 8.01074,9.07169 10.72764,8.88145 1.5248,-0.10677 4.21251,0.56032 5.9727,1.48241 3.95314,2.0709 5.29966,2.11576 5.29966,0.17654 0,-0.825 -0.45,-1.5 -1,-1.5 -0.55,0 -1,-0.45 -1,-1 0,-1.93415 2.65624,-0.96824 5.5,2 1.5808,1.65 3.46499,3 4.18709,3 0.7221,0 1.32659,0.5625 1.34332,1.25 0.0169,0.69372 0.48401,0.47121 1.04969,-0.5 1.07463,-1.84503 3.9199,-2.42231 3.9199,-0.79531 0,0.52507 1.6875,1.25931 3.75,1.63162 2.0625,0.37232 4.48351,1.05465 5.38002,1.51629 1.80335,0.9286 7.30248,10.79823 6.47665,11.62406 -1.20712,1.20713 -3.46686,-0.81362 -4.09183,-3.65909 -0.68877,-3.1359 -2.51484,-4.27414 -2.51484,-1.56753 0,0.825 -0.45,1.5 -1,1.5 -0.55,0 -1,0.87344 -1,1.94098 0,2.17992 -2.18122,4.01535 -2.7487,2.31293 -0.63481,-1.90443 -8.8355,-10.25391 -10.07119,-10.25391 -2.06028,0 -1.2715,4.78184 1.10147,6.67742 1.25487,1.00242 2.87831,3.83646 3.60764,6.29787 1.42489,4.80883 7.74052,12.02471 10.52452,12.02471 2.32602,0 3.26541,3.04042 1.28228,4.15024 -2.18186,1.22103 -1.1692,3.65721 3.09814,7.4533 2.19152,1.94949 3.07653,3.35834 2.38004,3.7888 -0.60983,0.3769 -1.68175,-0.2322 -2.38204,-1.35354 -0.70029,-1.12134 -1.84001,-2.0388 -2.53271,-2.0388 -0.6927,0 -1.25945,-0.67119 -1.25945,-1.49153 0,-0.82034 -0.9,-2.05358 -2,-2.74054 -1.1,-0.68696 -2,-1.73734 -2,-2.33416 0,-1.37001 -4.26845,-5.43377 -5.70746,-5.43377 -2.31828,0 -2.39781,5.70722 -0.12034,8.63592 1.00271,1.28943 -3.96569,1.22778 -6.07425,-0.0754 -2.97972,-1.84157 -1.47964,4.70866 1.59286,6.95532 1.08611,0.79419 1.25281,1.40095 0.51085,1.8595 -0.60572,0.37436 -1.58972,-0.23195 -2.18667,-1.34735 z m -11.34832,-9.69468 c -0.36667,-0.36666 -0.96667,-0.36666 -1.33334,0 -0.36666,0.36667 -0.0667,0.66667 0.66667,0.66667 0.73333,0 1.03333,-0.3 0.66667,-0.66667 z m -2.99239,-2.84115 c 0.51811,-1.57783 -3.57855,-3.65734 -5.80985,-2.94915 -1.92923,0.61231 -1.93904,0.71705 -0.24263,2.59156 1.79394,1.98228 5.44809,2.19818 6.05248,0.35759 z m -15.67428,-0.99218 c 0,-0.275 -0.225,-0.5 -0.5,-0.5 -0.275,0 -0.5,0.225 -0.5,0.5 0,0.275 0.225,0.5 0.5,0.5 0.275,0 0.5,-0.225 0.5,-0.5 z m -33,-8 c 0,-0.275 -0.225,-0.5 -0.5,-0.5 -0.275,0 -0.5,0.225 -0.5,0.5 0,0.275 0.225,0.5 0.5,0.5 0.275,0 0.5,-0.225 0.5,-0.5 z m 6,-8 c 0,-0.825 -0.45,-1.5 -1,-1.5 -0.55,0 -1,0.675 -1,1.5 0,0.825 0.45,1.5 1,1.5 0.55,0 1,-0.675 1,-1.5 z m 45.62306,-4.30551 c -2.46904,-2.46904 -3.40938,1.27566 -0.99434,3.9598 1.87128,2.07979 1.87128,2.07979 2.2076,-0.16521 0.18498,-1.23476 -0.36099,-2.94232 -1.21326,-3.79459 z m -35.62306,-2.69449 c 0,-0.275 -0.225,-0.5 -0.5,-0.5 -0.275,0 -0.5,0.225 -0.5,0.5 0,0.275 0.225,0.5 0.5,0.5 0.275,0 0.5,-0.225 0.5,-0.5 z m 60,-3.55902 c 0,-0.51754 -0.45,-0.94098 -1,-0.94098 -0.55,0 -1,0.70156 -1,1.55902 0,0.85746 0.45,1.2809 1,0.94098 0.55,-0.33992 1,-1.04148 1,-1.55902 z m -19,-0.44098 c 0,-0.275 -0.225,-0.5 -0.5,-0.5 -0.275,0 -0.5,0.225 -0.5,0.5 0,0.275 0.225,0.5 0.5,0.5 0.275,0 0.5,-0.225 0.5,-0.5 z m 3,-3 c 0,-0.825 -0.45,-1.5 -1,-1.5 -0.55,0 -1,0.675 -1,1.5 0,0.825 0.45,1.5 1,1.5 0.55,0 1,-0.675 1,-1.5 z m -74.08653,-3.66169 c -0.79004,-1.47619 -1.40539,-1.86255 -1.67557,-1.05202 -0.43908,1.31725 1.70056,4.60858 2.48562,3.82352 0.24119,-0.24118 -0.12334,-1.48836 -0.81005,-2.7715 z m 58.58653,0.16169 c 0.33992,-0.55 -0.11008,-1 -1,-1 -0.88992,0 -1.33992,0.45 -1,1 0.33992,0.55 0.78992,1 1,1 0.21008,0 0.66008,-0.45 1,-1 z m -10.65812,-4 c -2.33403,-3.15694 -3.84309,-3.84465 -3.84009,-1.75 0.001,0.95947 3.78009,4.00602 5.77815,4.65857 0.15396,0.0503 -0.71816,-1.25857 -1.93806,-2.90857 z M 402.13775,119.35151 c -0.36667,-0.36666 -0.66667,-0.0667 -0.66667,0.66667 0,0.73333 0.3,1.03333 0.66667,0.66667 0.36666,-0.36667 0.36666,-0.96667 0,-1.33334 z m -12.66667,-6.83333 c 0,-0.275 -0.225,-0.5 -0.5,-0.5 -0.275,0 -0.5,0.225 -0.5,0.5 0,0.275 0.225,0.5 0.5,0.5 0.275,0 0.5,-0.225 0.5,-0.5 z m 67.66667,-7.16667 c -0.36667,-0.36666 -0.96667,-0.36666 -1.33334,0 -0.36666,0.36667 -0.0667,0.66667 0.66667,0.66667 0.73333,0 1.03333,-0.3 0.66667,-0.66667 z M 163.47108,86.518182 c 0,-0.275 -0.225,-0.5 -0.5,-0.5 -0.275,0 -0.5,0.225 -0.5,0.5 0,0.275 0.225,0.5 0.5,0.5 0.275,0 0.5,-0.225 0.5,-0.5 z m 52.50942,-4.883229 c 1.41945,-1.037925 2.32953,-1.109784 3.64565,-0.287855 1.93204,1.206576 3.42408,0.417182 2.38605,-1.262385 -0.36254,-0.586592 -2.3201,-1.073422 -4.35014,-1.081844 -4.47016,-0.01855 -6.6841,-1.257261 -5.89984,-3.301003 0.76913,-2.004332 -1.33106,-2.713742 -5.85878,-1.978994 -3.68298,0.597665 -3.68298,0.597665 -1.30767,2.439129 1.98919,1.542122 2.13618,1.996378 0.90427,2.794449 -1.60054,1.036878 -1.50682,1.220605 1.47104,2.883844 2.75707,1.53992 6.747,1.448982 9.00942,-0.205341 z M 193.92837,81.08728 c 0.31644,-0.511996 0.0964,-1.226871 -0.48887,-1.588613 -1.47996,-0.91467 -4.23206,0.283912 -3.47279,1.512452 0.7816,1.264647 3.19842,1.31111 3.96166,0.07616 z m 105.54271,-3.108699 c 0,-1.029552 -3.9461,-2.347636 -4.71786,-1.575871 -0.99918,0.999176 1.81068,3.517086 3.29097,2.949042 0.78479,-0.301151 1.42689,-0.919078 1.42689,-1.373171 z m 10.66667,1.372934 c -0.36667,-0.366666 -0.96667,-0.366666 -1.33334,0 -0.36666,0.366667 -0.0667,0.666667 0.66667,0.666667 0.73333,0 1.03333,-0.3 0.66667,-0.666667 z m 49.33333,-1.274316 c 0,-1.17986 -1.95035,-2.441996 -2.66667,-1.725684 -0.71631,0.716313 0.54583,2.666667 1.72569,2.666667 0.51754,0 0.94098,-0.423442 0.94098,-0.940983 z m 28.80867,-1.678914 c -0.86475,-0.864752 -2.41296,-1.395561 -3.44047,-1.179574 -1.55893,0.327694 -1.37157,0.660111 1.1318,2.008031 3.46028,1.863163 4.59361,1.456476 2.30867,-0.828457 z m -9.80867,0.178914 c 0,-0.242541 -0.45,-0.719098 -1,-1.059017 -0.55,-0.339919 -1,-0.141476 -1,0.440983 0,0.582459 0.45,1.059017 1,1.059017 0.55,0 1,-0.198442 1,-0.440983 z m -115.5,-2.559017 c 0,-1.111783 -1.10078,-1.477601 -4.25321,-1.413454 -4.78236,0.09731 -6.40949,1.053579 -4.21783,2.478819 2.28452,1.485627 8.47104,0.707576 8.47104,-1.065365 z m 24.5,1 c 0,-0.55 -0.45,-1 -1,-1 -0.55,0 -1,0.45 -1,1 0,0.55 0.45,1 1,1 0.55,0 1,-0.45 1,-1 z m -37,-1.5 c 1.05515,-1.271373 0.82652,-1.5 -1.5,-1.5 -2.32652,0 -2.55515,0.228627 -1.5,1.5 0.68469,0.825 1.35969,1.5 1.5,1.5 0.14031,0 0.81531,-0.675 1.5,-1.5 z m -5.33333,-2.166667 c -0.36667,-0.366666 -0.66667,-0.06667 -0.66667,0.666667 0,0.733333 0.3,1.033333 0.66667,0.666667 0.36666,-0.366667 0.36666,-0.966667 0,-1.333334 z m -7.66667,-0.833333 c 0,-0.825 -0.675,-1.5 -1.5,-1.5 -2.60246,0 -1.75909,1.970813 1.25,2.921053 0.1375,0.04342 0.25,-0.596053 0.25,-1.421053 z m 27.5,-3.5 c 0.33992,-0.55 0.14148,-1 -0.44098,-1 -0.58246,0 -1.05902,0.45 -1.05902,1 0,0.55 0.19844,1 0.44098,1 0.24254,0 0.7191,-0.45 1.05902,-1 z m -22.5,-9 c 0,-0.55 -0.45,-1 -1,-1 -0.55,0 -1,0.45 -1,1 0,0.55 0.45,1 1,1 0.55,0 1,-0.45 1,-1 z m 8,0.05902 c 0,-1.17986 -1.95035,-2.441996 -2.66667,-1.725684 -0.71631,0.71631 0.54583,2.666664 1.72569,2.666664 0.51754,0 0.94098,-0.423442 0.94098,-0.940983 z m 34.65591,-1.551215 c -1.36801,-2.949503 -3.65591,-3.31944 -3.65591,-0.591138 0,1.843742 1.20898,2.837263 3.65591,3.004386 0.87456,0.05973 0.87456,-0.52768 0,-2.413251 z m -16.15591,0.529245 c 2.71066,-1.114594 0.87229,-1.704243 -7.73743,-2.481747 -3.70559,-0.334635 -7.41809,-0.869619 -8.25,-1.188854 -0.95875,-0.367906 -1.51257,9.89e-4 -1.51257,1.00751 0,0.918592 1.15918,1.843598 2.75,2.19446 1.5125,0.333588 3.2,0.756635 3.75,0.940105 1.93476,0.645399 9.02262,0.341604 11,-0.471474 z m 7.5,-0.03705 c -1.97012,-1.273187 -4.28687,-1.273187 -3.5,0 0.33992,0.55 1.60398,0.993109 2.80902,0.984687 1.78123,-0.01245 1.91046,-0.196601 0.69098,-0.984687 z M 449.13775,195.35151 c -1.20375,-1.20375 -0.69713,-4.10767 0.81808,-4.6891 1.99551,-0.76576 3.83286,2.63816 2.26845,4.20257 -1.31422,1.31422 -2.13022,1.44285 -3.08653,0.48653 z m 150.33333,-1.83333 c 0,-0.275 0.225,-0.5 0.5,-0.5 0.275,0 0.5,0.225 0.5,0.5 0,0.275 -0.225,0.5 -0.5,0.5 -0.275,0 -0.5,-0.225 -0.5,-0.5 z m -153.92105,-2.08333 c 0.048,-1.16495 0.28494,-1.4019 0.60416,-0.60417 0.28887,0.72187 0.25335,1.58437 -0.0789,1.91667 -0.33229,0.33229 -0.56864,-0.25834 -0.52522,-1.3125 z m 155.92105,0.0833 c 0,-0.275 0.225,-0.5 0.5,-0.5 0.275,0 0.5,0.225 0.5,0.5 0,0.275 -0.225,0.5 -0.5,0.5 -0.275,0 -0.5,-0.225 -0.5,-0.5 z m -206.60699,-3.08176 c 0.33385,-0.86998 0.60699,-1.95285 0.60699,-2.40638 0,-0.45352 0.88925,-0.59205 1.97611,-0.30783 1.59145,0.41618 1.77926,0.88458 0.96481,2.40638 -1.24821,2.33231 -4.43073,2.60843 -3.54791,0.30783 z m 48.60699,-0.47723 c 0,-0.58246 0.45,-0.7809 1,-0.44098 0.55,0.33992 1,0.81648 1,1.05902 0,0.24254 -0.45,0.44098 -1,0.44098 -0.55,0 -1,-0.47656 -1,-1.05902 z m 154.4309,-0.0528 c -0.37792,-0.6115 -0.067,-1.5046 0.69098,-1.98469 1.08994,-0.69036 1.01218,-0.87609 -0.37188,-0.8882 -2.39127,-0.0209 -2.21411,-1.66068 0.249,-2.3048 2.50728,-0.65567 3.24231,0.47986 2.42319,3.7435 -0.67801,2.70138 -1.85836,3.2673 -2.99129,1.43419 z m -153.4309,-2.38818 c 0,-0.275 0.225,-0.5 0.5,-0.5 0.275,0 0.5,0.225 0.5,0.5 0,0.275 -0.225,0.5 -0.5,0.5 -0.275,0 -0.5,-0.225 -0.5,-0.5 z m 150.75,-8.61509 c -1.5125,-1.12845 -2.75,-2.91419 -2.75,-3.96832 0,-1.24992 -0.69568,-1.91659 -2,-1.91659 -1.46667,0 -2,-0.66667 -2,-2.5 0,-2.81993 2.07147,-3.32374 4.01874,-0.97742 0.72948,0.87897 2.04936,1.27319 3.12244,0.93261 1.62655,-0.51625 1.85882,-0.0192 1.85882,3.97742 0,2.51207 0.45,4.56739 1,4.56739 0.55,0 1,0.45 1,1 0,1.48475 -1.1805,1.17502 -4.25,-1.11509 z m 4.25,-6.88491 c 0,-0.73333 0.3,-1.03333 0.66667,-0.66667 0.36666,0.36667 0.36666,0.96667 0,1.33334 -0.36667,0.36666 -0.66667,0.0667 -0.66667,-0.66667 z m -116,-4 c 0,-0.55 0.675,-1 1.5,-1 0.825,0 1.5,0.45 1.5,1 0,0.55 -0.675,1 -1.5,1 -0.825,0 -1.5,-0.45 -1.5,-1 z m -18.01244,-3.51324 c -1.88505,-2.00654 -2.10925,-2.7626 -1.11204,-3.75 0.99327,-0.98351 1.44647,-0.88691 2.21321,0.47171 0.53029,0.93965 1.56919,1.47629 2.30867,1.19253 1.79085,-0.68721 3.04293,2.70269 1.38647,3.75374 -1.8875,1.19765 -2.20934,1.08573 -4.79631,-1.66798 z m -36.98756,-17.98676 c 0,-0.275 0.225,-0.5 0.5,-0.5 0.275,0 0.5,0.225 0.5,0.5 0,0.275 -0.225,0.5 -0.5,0.5 -0.275,0 -0.5,-0.225 -0.5,-0.5 z m 127,-1.5 c 0,-0.73333 0.3,-1.03333 0.66667,-0.66667 0.36666,0.36667 0.36666,0.96667 0,1.33334 -0.36667,0.36666 -0.66667,0.0667 -0.66667,-0.66667 z m 5.40451,-2.15451 c -0.44208,-0.7153 -0.27432,-0.88306 0.44098,-0.44098 1.15275,0.71244 1.54767,1.59549 0.71353,1.59549 -0.24254,0 -0.76207,-0.51953 -1.15451,-1.15451 z m -23.40451,-11.34549 c 0,-0.275 0.225,-0.5 0.5,-0.5 0.275,0 0.5,0.225 0.5,0.5 0,0.275 -0.225,0.5 -0.5,0.5 -0.275,0 -0.5,-0.225 -0.5,-0.5 z m -139,-1 c 0,-0.275 0.225,-0.5 0.5,-0.5 0.275,0 0.5,0.225 0.5,0.5 0,0.275 -0.225,0.5 -0.5,0.5 -0.275,0 -0.5,-0.225 -0.5,-0.5 z m 115,-1.5 c 0,-0.73333 0.3,-1.03333 0.66667,-0.66667 0.36666,0.36667 0.36666,0.96667 0,1.33334 -0.36667,0.36666 -0.66667,0.0667 -0.66667,-0.66667 z m -123,-3.05902 c 0,-0.58245 0.45,-0.7809 1,-0.44098 0.55,0.33992 1,0.81648 1,1.05902 0,0.24254 -0.45,0.44098 -1,0.44098 -0.55,0 -1,-0.47656 -1,-1.05902 z m -7,-2.94098 c 0,-0.55 0.64844,-1 1.44098,-1 0.79254,0 1.7191,0.45 2.05902,1 0.33992,0.55 -0.30852,1 -1.44098,1 -1.13246,0 -2.05902,-0.45 -2.05902,-1 z m -7,-6.5 c 0,-0.275 0.225,-0.5 0.5,-0.5 0.275,0 0.5,0.225 0.5,0.5 0,0.275 -0.225,0.5 -0.5,0.5 -0.275,0 -0.5,-0.225 -0.5,-0.5 z m 112,-0.5 c 0,-0.55 0.45,-1 1,-1 0.55,0 1,0.45 1,1 0,0.55 -0.45,1 -1,1 -0.55,0 -1,-0.45 -1,-1 z m -118,-1.5 c -0.69443,-0.83674 -0.80272,-1.5 -0.24489,-1.5 0.55,0 1.5602,0.675 2.24489,1.5 0.69443,0.83674 0.80272,1.5 0.24489,1.5 -0.55,0 -1.5602,-0.675 -2.24489,-1.5 z m -9.1875,-4.18311 c 0.72187,-0.28887 1.58438,-0.25335 1.91667,0.0789 0.33229,0.33229 -0.25834,0.56864 -1.3125,0.52522 -1.16495,-0.048 -1.4019,-0.28494 -0.60417,-0.60417 z m -8.98065,-1.67174 c -2.01749,-0.62983 -4.00499,-1.48265 -4.41667,-1.89515 -0.41168,-0.4125 -1.57351,-0.75 -2.58185,-0.75 -1.00833,0 -1.83333,-0.45 -1.83333,-1 0,-0.55 1.125,-1 2.5,-1 1.375,0 2.5,0.39752 2.5,0.88337 0,0.92843 3.83378,2.45399 5.43553,2.16294 1.80893,-0.3287 5.56447,1.00273 5.56447,1.97274 0,1.22977 -2.43872,1.10256 -7.16815,-0.3739 z m -14.58185,-4.35088 c -1.2375,-0.23835 -2.25,-0.85207 -2.25,-1.36382 0,-1.37497 2.22685,-1.07344 4.44113,0.60135 1.96707,1.48782 1.82731,1.53645 -2.19113,0.76247 z m -2.61163,-6.79427 c -0.42038,-1.095489 0.12314,-1.499998 2.01546,-1.499998 2.18978,0 2.39826,0.232305 1.34617,1.499998 -0.68469,0.825 -1.59164,1.5 -2.01546,1.5 -0.42381,0 -1.02958,-0.675 -1.34617,-1.5 z m -10.43303,-1.966086 c -1.06691,-1.356349 -2.22457,-2.181349 -2.57259,-1.833334 -0.34801,0.348016 -0.63275,0.107755 -0.63275,-0.533911 0,-0.641667 -0.9,-1.166667 -2,-1.166667 -1.1,0 -2,-0.464501 -2,-1.032224 0,-0.567724 -1.0125,-1.4392 -2.25,-1.936614 -2.25,-0.904389 -2.25,-0.904389 -0.081,-0.967776 2.21722,-0.0648 8.56337,2.834352 9.16437,4.186614 0.18334,0.4125 1.55584,0.75 3.05,0.75 3.79894,0 5.57098,1.932409 3.33187,3.633399 -2.5086,1.905719 -3.83716,1.662659 -6.00986,-1.099487 z m -191.87201,0.799421 c 0.36667,-0.366666 0.96667,-0.366666 1.33334,0 0.36666,0.366667 0.0667,0.666667 -0.66667,0.666667 -0.73333,0 -1.03333,-0.3 -0.66667,-0.666667 z m 183.66667,-1.833333 c 0,-0.275 0.225,-0.5 0.5,-0.5 0.275,0 0.5,0.225 0.5,0.5 0,0.275 -0.225,0.5 -0.5,0.5 -0.275,0 -0.5,-0.225 -0.5,-0.5 z m -90,-1.559017 c 0,-0.582459 0.45,-0.780902 1,-0.440983 0.55,0.339919 1,0.816476 1,1.059017 0,0.242541 -0.45,0.440983 -1,0.440983 -0.55,0 -1,-0.476558 -1,-1.059017 z m 84,0.559017 c 0,-0.275 0.225,-0.5 0.5,-0.5 0.275,0 0.5,0.225 0.5,0.5 0,0.275 -0.225,0.5 -0.5,0.5 -0.275,0 -0.5,-0.225 -0.5,-0.5 z m 115.59565,-3.111341 c -0.45257,-1.179371 -0.19124,-1.447452 0.9748,-1 0.87622,0.336238 1.78132,0.611341 2.01134,0.611341 0.23001,0 0.41821,0.45 0.41821,1 0,1.628986 -2.73299,1.138206 -3.40435,-0.611341 z m -174.59565,0.111341 c 0,-0.275 0.225,-0.5 0.5,-0.5 0.275,0 0.5,0.225 0.5,0.5 0,0.275 -0.225,0.5 -0.5,0.5 -0.275,0 -0.5,-0.225 -0.5,-0.5 z m 170,0 c 0,-0.275 0.225,-0.5 0.5,-0.5 0.275,0 0.5,0.225 0.5,0.5 0,0.275 -0.225,0.5 -0.5,0.5 -0.275,0 -0.5,-0.225 -0.5,-0.5 z m -128,-1.5 c 0,-0.55 -0.675,-1 -1.5,-1 -0.825,0 -1.5,-0.683573 -1.5,-1.519052 0,-1.147611 0.67243,-1.360563 2.75,-0.870892 3.42404,0.807029 4.67502,1.89323 3.80385,3.302812 -0.84339,1.364639 -3.55385,1.431093 -3.55385,0.08713 z m -24.66667,-1.666667 c 0.36667,-0.366666 0.96667,-0.366666 1.33334,0 0.36666,0.366667 0.0667,0.666667 -0.66667,0.666667 -0.73333,0 -1.03333,-0.3 -0.66667,-0.666667 z m -17.52083,-2.016447 c 0.72187,-0.288871 1.58438,-0.253344 1.91667,0.07895 0.33229,0.332292 -0.25834,0.568641 -1.3125,0.52522 -1.16495,-0.04798 -1.4019,-0.284941 -0.60417,-0.604167 z m 10.1875,0.183114 c 0,-0.275 0.225,-0.5 0.5,-0.5 0.275,0 0.5,0.225 0.5,0.5 0,0.275 -0.225,0.5 -0.5,0.5 -0.275,0 -0.5,-0.225 -0.5,-0.5 z m 150,0 c 0,-0.275 0.225,-0.5 0.5,-0.5 0.275,0 0.5,0.225 0.5,0.5 0,0.275 -0.225,0.5 -0.5,0.5 -0.275,0 -0.5,-0.225 -0.5,-0.5 z m 6.5,-0.5 c -0.33992,-0.55 0.0835,-1 0.94098,-1 0.85746,0 1.55902,0.45 1.55902,1 0,0.55 -0.42344,1 -0.94098,1 -0.51754,0 -1.2191,-0.45 -1.55902,-1 z m -171.6875,-0.683114 c 0.72187,-0.288871 1.58438,-0.253344 1.91667,0.07895 0.33229,0.332292 -0.25834,0.568641 -1.3125,0.52522 -1.16495,-0.04798 -1.4019,-0.284941 -0.60417,-0.604167 z m -69.8125,-19.816886 c 0,-0.275 0.225,-0.5 0.5,-0.5 0.275,0 0.5,0.225 0.5,0.5 0,0.275 -0.225,0.5 -0.5,0.5 -0.275,0 -0.5,-0.225 -0.5,-0.5 z"
       id="path170" />
  </g>
</svg>
